<svg width="1916" height="1512" viewBox="0 0 1916 1512" fill="none" xmlns="http://www.w3.org/2000/svg">
<path d="M201 307L245.5 229L339.5 160L758 175.5L1025.5 229L1223 257.5L1346.5 307L1462 370.5L1518.5 447.5L1572.5 540L1598 638L1613.5 761L1572.5 987L1462 1151.5L1346.5 1262L1223 1357L1164 1375L1089.5 1388L907 1418.5H838H735L650.5 1388L554.5 1357L513 1319L528.5 1299L554.5 1262L576.5 1208.5V1179L541.5 1166.5L513 1179H459.5L414 1166.5L365.5 1099.5L276 872L228.5 661L201 508L180.5 402.5L201 307Z" fill="white" stroke="black"/>
</svg>
