<svg width="164" height="143" viewBox="0 0 164 143" fill="none" xmlns="http://www.w3.org/2000/svg">
<path d="M12.9907 13.6099C19.8154 6.62427 31.2643 2.01333 49.2573 3.18115L49.2603 3.14893L51.6987 3.37061L131.7 10.6431C136.126 10.8484 142.659 12.4891 148.372 16.7583C154.226 21.1335 159.105 28.1968 159.978 38.8921C161.608 58.8556 157.29 101.74 154.965 120.505C154.651 124.072 153.135 129.16 149.426 133.065C145.51 137.187 139.461 139.655 130.945 138.086C123.69 136.75 107.675 136.444 90.2612 136.649C73.1213 136.851 54.9941 137.539 43.4253 138.118C38.0193 139.486 29.8081 140.353 22.2876 138.445C14.4344 136.452 7.12108 131.326 5.04443 120.712C3.17539 111.159 2.81369 94.9408 3.07568 78.813C3.33711 62.7205 4.22937 46.399 4.979 36.1685C4.37923 29.8128 6.03879 20.726 12.9907 13.6099Z" stroke="white" stroke-width="6"/>
</svg>
