<svg width="162" height="143" viewBox="0 0 162 143" fill="none" xmlns="http://www.w3.org/2000/svg">
<path d="M52.293 3.05371C69.4917 2.59699 92.8489 4.92892 121.411 14.0283C125.73 15.4041 129.282 16.129 132.496 16.8584C135.634 17.5704 138.633 18.3206 141.326 19.8174C146.994 22.9674 150.483 28.911 154.123 41.2451C156.47 49.1989 157.299 62.0472 157.659 74.46C158.029 87.2023 157.907 99.3184 158.243 106.963L158.258 107.304L158.196 107.641C157.811 109.723 157.619 112.273 157.326 115.291C157.044 118.208 156.673 121.451 155.907 124.529C155.143 127.602 153.937 130.716 151.853 133.273C149.712 135.899 146.754 137.801 142.799 138.543C141.519 138.783 138.867 138.923 135.527 139.023C132.072 139.127 127.59 139.191 122.445 139.227C112.152 139.297 99.1398 139.25 86.2432 139.156C60.3949 138.968 35.1021 138.594 32.7461 138.594C32.2975 138.594 31.6591 138.67 30.6309 138.807C29.6794 138.933 28.4912 139.096 27.2129 139.182C24.6477 139.354 21.4751 139.239 18.29 137.841C11.6724 134.935 6.55332 127.282 4.76367 110.92C2.99493 94.7483 2.23897 69.8036 4.00684 48.8418C4.88854 38.3874 6.41257 28.7241 8.84375 21.5947C10.0554 18.0416 11.561 14.907 13.4844 12.6094C15.284 10.4596 17.611 8.87345 20.4688 8.62793C25.0702 6.4241 36.0215 3.48586 52.293 3.05371Z" stroke="white" stroke-width="6"/>
</svg>
