<svg width="172" height="148" viewBox="0 0 172 148" fill="none" xmlns="http://www.w3.org/2000/svg">
<path d="M8.72937 34.251C10.9732 21.7009 25.9733 0.18065 66.1678 3.30664L137.424 7.12598L137.489 7.12891L137.556 7.13574C146.712 8.0313 165.08 16.0483 167.662 40.375C170.084 63.1985 168.671 95.804 167.671 109.221L167.67 109.22C167.219 115.423 164.741 124.568 158.678 132.089C152.502 139.748 142.714 145.568 128.164 144.953C101.027 143.806 59.6706 141.608 42.3885 140.652L42.3495 140.65C31.8912 139.934 10.6865 130.961 5.21277 101.91C-0.0579326 73.9368 5.30369 45.3717 8.72937 34.251Z" stroke="white" stroke-width="6"/>
</svg>
